<svg width="657.9px" height="120.8px" xmlns="http://www.w3.org/2000/svg" viewBox="-78.9375 14.600000000000001 657.875 120.8" style="background: #596886" preserveAspectRatio="xMidYMid"><defs><filter id="editing-hover" x="-100%" y="-100%" width="300%" height="300%"><feFlood flood-color="#052b4a" result="flood"></feFlood><feComposite operator="in" in2="SourceAlpha" in="flood" result="shadow"></feComposite><feOffset dx="-4" dy="-4" in="SourceGraphic" result="offset-1"></feOffset><feOffset dx="4" dy="4" in="shadow" result="offset-2"></feOffset><feMerge><feMergeNode in="offset-2"></feMergeNode><feMergeNode in="offset-1"></feMergeNode></feMerge></filter></defs><g filter="url(#editing-hover)"><g transform="matrix(1.2,0,0,1.4,-16.7,154.7)"><path d="M -21.4 -39.9 L -35.4 -39.9 L -27.2 -82.2 L -13.2 -82.2 L -21.4 -39.9 Z M 34.3 -38.7 L 34.3 -38.7 L 34.3 -38.7 Q 26.6 -38.7 26.6 -44.7 L 26.6 -44.7 L 26.6 -44.7 Q 26.6 -47.3 27.7 -52.4 L 27.7 -52.4 L 27.7 -52.4 Q 28.8 -57.5 29.2 -59.5 L 29.2 -59.5 L 29.2 -59.5 Q 30.1 -64.2 30.1 -65.7 L 30.1 -65.7 L 30.1 -65.7 Q 30.1 -68.9 27.7 -68.9 L 27.7 -68.9 L 27.7 -68.9 Q 26.1 -68.9 24.5 -66.7 L 24.5 -66.7 L 24.5 -66.7 Q 23 -64.5 22.3 -60.1 L 22.3 -60.1 L 18.3 -39.9 L 5.9 -38.7 L 9.3 -56.1 L 9.3 -56.1 Q 9.9 -59 10.4 -62.2 L 10.4 -62.2 L 10.4 -62.2 Q 10.9 -65.5 10.9 -66 L 10.9 -66 L 10.9 -66 Q 10.9 -68.9 8.7 -68.9 L 8.7 -68.9 L 8.7 -68.9 Q 7.3 -68.9 5.7 -66.8 L 5.7 -66.8 L 5.7 -66.8 Q 4.1 -64.6 3.2 -60.1 L 3.2 -60.1 L -0.7 -39.9 L -13.3 -38.7 L -6.6 -72.6 L 3.8 -73.9 L 2.7 -67.4 L 2.7 -67.4 Q 4.4 -70.9 7.5 -72.4 L 7.5 -72.4 L 7.5 -72.4 Q 10.5 -73.9 15.3 -73.9 L 15.3 -73.9 L 15.3 -73.9 Q 18.1 -73.9 19.9 -72.5 L 19.9 -72.5 L 19.9 -72.5 Q 21.7 -71.2 22.2 -69 L 22.2 -69 L 22.2 -69 Q 23.3 -71.2 26.1 -72.6 L 26.1 -72.6 L 26.1 -72.6 Q 28.9 -73.9 32.3 -73.9 L 32.3 -73.9 L 32.3 -73.9 Q 35.7 -73.9 37.4 -73.1 L 37.4 -73.1 L 37.4 -73.1 Q 39.1 -72.4 40.2 -71.2 L 40.2 -71.2 L 40.2 -71.2 Q 41.9 -68.9 41.9 -64.8 L 41.9 -64.8 L 41.9 -64.8 Q 41.9 -60.8 40.2 -52.4 L 40.2 -52.4 L 40.2 -52.4 Q 39.3 -48.3 39.3 -46.8 L 39.3 -46.8 L 39.3 -46.8 Q 39.3 -45.3 40.1 -44.4 L 40.1 -44.4 L 40.1 -44.4 Q 41 -43.5 42.3 -43.4 L 42.3 -43.4 L 42.3 -43.4 Q 41.6 -41.2 39.4 -39.9 L 39.4 -39.9 L 39.4 -39.9 Q 37.2 -38.7 34.3 -38.7 Z M 50 -41.9 L 50 -41.9 L 50 -41.9 Q 48.5 -43.5 47.8 -46.2 L 47.8 -46.2 L 47.8 -46.2 Q 47.1 -48.8 47.1 -53.1 L 47.1 -53.1 L 47.1 -53.1 Q 47.1 -57.4 48.6 -61.3 L 48.6 -61.3 L 48.6 -61.3 Q 50.1 -65.2 52.8 -68 L 52.8 -68 L 52.8 -68 Q 58.3 -73.9 67.4 -73.9 L 67.4 -73.9 L 67.4 -73.9 Q 70.6 -73.9 73 -72.8 L 73 -72.8 L 83.9 -73.9 L 79.2 -48.9 L 79.2 -48.9 Q 79 -48.1 79 -46.7 L 79 -46.7 L 79 -46.7 Q 79 -45.3 79.9 -44.4 L 79.9 -44.4 L 79.9 -44.4 Q 80.7 -43.5 82 -43.4 L 82 -43.4 L 82 -43.4 Q 81.4 -41.2 79 -39.9 L 79 -39.9 L 79 -39.9 Q 76.7 -38.7 74.1 -38.7 L 74.1 -38.7 L 74.1 -38.7 Q 71.5 -38.7 69.7 -39.7 L 69.7 -39.7 L 69.7 -39.7 Q 67.9 -40.6 67.4 -42.3 L 67.4 -42.3 L 67.4 -42.3 Q 66.4 -40.7 64.2 -39.7 L 64.2 -39.7 L 64.2 -39.7 Q 62 -38.7 59.1 -38.7 L 59.1 -38.7 L 59.1 -38.7 Q 56.2 -38.7 53.9 -39.4 L 53.9 -39.4 L 53.9 -39.4 Q 51.5 -40.2 50 -41.9 Z M 63.5 -67.8 L 63.5 -67.8 L 63.5 -67.8 Q 62.8 -66.7 62.1 -64.7 L 62.1 -64.7 L 62.1 -64.7 Q 61.5 -62.8 60.4 -57.6 L 60.4 -57.6 L 60.4 -57.6 Q 59.4 -52.4 59.4 -48.6 L 59.4 -48.6 L 59.4 -48.6 Q 59.4 -44.9 59.9 -43.8 L 59.9 -43.8 L 59.9 -43.8 Q 60.5 -42.8 61.5 -42.8 L 61.5 -42.8 L 61.5 -42.8 Q 63.6 -42.8 65.1 -44.7 L 65.1 -44.7 L 65.1 -44.7 Q 66.6 -46.7 67.2 -50.1 L 67.2 -50.1 L 70.6 -68.9 L 70.6 -68.9 Q 69.2 -70 67.6 -70 L 67.6 -70 L 67.6 -70 Q 66.1 -70 65.2 -69.5 L 65.2 -69.5 L 65.2 -69.5 Q 64.2 -69 63.5 -67.8 Z M 91.7 -66.7 L 91.7 -66.7 L 91.7 -66.7 Q 93.9 -69.8 97.2 -71.8 L 97.2 -71.8 L 97.2 -71.8 Q 100.4 -73.9 104.5 -73.9 L 104.5 -73.9 L 104.5 -73.9 Q 108.5 -73.9 110.4 -72.6 L 110.4 -72.6 L 123 -73.9 L 118.6 -49.3 L 118.6 -49.3 Q 116.4 -36.7 111.6 -31.8 L 111.6 -31.8 L 111.6 -31.8 Q 107.1 -27.1 98.3 -27.1 L 98.3 -27.1 L 98.3 -27.1 Q 91.6 -27.1 87.7 -29.3 L 87.7 -29.3 L 87.7 -29.3 Q 83.9 -31.4 83.9 -34.9 L 83.9 -34.9 L 83.9 -34.9 Q 83.9 -37.5 85.9 -39 L 85.9 -39 L 85.9 -39 Q 87.8 -40.5 90.9 -40.5 L 90.9 -40.5 L 90.9 -40.5 Q 93.6 -40.5 95.6 -39.3 L 95.6 -39.3 L 95.6 -39.3 Q 96.9 -38.7 97.4 -37.8 L 97.4 -37.8 L 97.4 -37.8 Q 96 -36.5 96 -34.4 L 96 -34.4 L 96 -34.4 Q 96 -31.6 98.5 -31.6 L 98.5 -31.6 L 98.5 -31.6 Q 102.8 -31.6 105.2 -41.7 L 105.2 -41.7 L 105.2 -41.7 Q 106 -44.5 106.5 -47.2 L 106.5 -47.2 L 106.5 -47.2 Q 103.6 -43.7 97.1 -43.7 L 97.1 -43.7 L 97.1 -43.7 Q 92.6 -43.7 90 -45.9 L 90 -45.9 L 90 -45.9 Q 87.3 -48.1 87.3 -53.2 L 87.3 -53.2 L 87.3 -53.2 Q 87.3 -56.4 88.4 -60 L 88.4 -60 L 88.4 -60 Q 89.5 -63.6 91.7 -66.7 Z M 100 -53 L 100 -53 L 100 -53 Q 100 -48.6 102.2 -48.6 L 102.2 -48.6 L 102.2 -48.6 Q 103.8 -48.6 105.2 -50.3 L 105.2 -50.3 L 105.2 -50.3 Q 106.4 -51.7 106.8 -53.6 L 106.8 -53.6 L 110.1 -70.1 L 110.1 -70.1 Q 109.8 -70.2 109.5 -70.3 L 109.5 -70.3 L 109.5 -70.3 Q 108.8 -70.5 108 -70.5 L 108 -70.5 L 108 -70.5 Q 104.1 -70.5 101.8 -64.1 L 101.8 -64.1 L 101.8 -64.1 Q 100 -59.1 100 -53 Z M 151.4 -50.8 L 151.4 -50.8 L 151.4 -50.8 Q 153 -49.7 153 -47.3 L 153 -47.3 L 153 -47.3 Q 153 -44.9 151.8 -43.3 L 151.8 -43.3 L 151.8 -43.3 Q 150.6 -41.8 148.6 -40.8 L 148.6 -40.8 L 148.6 -40.8 Q 144.5 -38.7 140.1 -38.7 L 140.1 -38.7 L 140.1 -38.7 Q 135.6 -38.7 133.1 -39.6 L 133.1 -39.6 L 133.1 -39.6 Q 130.5 -40.6 128.7 -42.4 L 128.7 -42.4 L 128.7 -42.4 Q 125.3 -45.8 125.3 -52 L 125.3 -52 L 125.3 -52 Q 125.3 -61.6 130.6 -67.5 L 130.6 -67.5 L 130.6 -67.5 Q 136.2 -73.9 146 -73.9 L 146 -73.9 L 146 -73.9 Q 152.1 -73.9 155.1 -71.3 L 155.1 -71.3 L 155.1 -71.3 Q 157.3 -69.4 157.3 -66.2 L 157.3 -66.2 L 157.3 -66.2 Q 157.3 -55 137.9 -55 L 137.9 -55 L 137.9 -55 Q 137.6 -53.3 137.6 -51.9 L 137.6 -51.9 L 137.6 -51.9 Q 137.6 -49 138.9 -47.8 L 138.9 -47.8 L 138.9 -47.8 Q 140.3 -46.7 142.7 -46.7 L 142.7 -46.7 L 142.7 -46.7 Q 145.1 -46.7 147.7 -47.8 L 147.7 -47.8 L 147.7 -47.8 Q 150.3 -49 151.4 -50.8 Z M 138.3 -57.7 L 138.3 -57.7 L 138.3 -57.7 Q 142.9 -57.7 145.5 -60.6 L 145.5 -60.6 L 145.5 -60.6 Q 148.1 -63.2 148.1 -67.5 L 148.1 -67.5 L 148.1 -67.5 Q 148.1 -69 147.6 -69.8 L 147.6 -69.8 L 147.6 -69.8 Q 147 -70.6 146 -70.6 L 146 -70.6 L 146 -70.6 Q 144.9 -70.6 143.9 -70.2 L 143.9 -70.2 L 143.9 -70.2 Q 143 -69.8 142 -68.4 L 142 -68.4 L 142 -68.4 Q 139.7 -65.2 138.3 -57.7 Z M 178.7 -62.4 L 178.7 -62.4 L 178.7 -62.4 Q 179.6 -64.8 179.6 -66.8 L 179.6 -66.8 L 179.6 -66.8 Q 179.6 -70.6 176.5 -70.6 L 176.5 -70.6 L 176.5 -70.6 Q 174.9 -70.6 173.6 -69.2 L 173.6 -69.2 L 173.6 -69.2 Q 172.3 -67.7 172.3 -65.9 L 172.3 -65.9 L 172.3 -65.9 Q 172.3 -64.6 173.3 -63.6 L 173.3 -63.6 L 173.3 -63.6 Q 174.8 -62.2 178.5 -59.9 L 178.5 -59.9 L 178.5 -59.9 Q 182.3 -57.6 183.7 -55.7 L 183.7 -55.7 L 183.7 -55.7 Q 185.2 -53.8 185.2 -51.2 L 185.2 -51.2 L 185.2 -51.2 Q 185.2 -48.6 183.9 -46.3 L 183.9 -46.3 L 183.9 -46.3 Q 182.7 -43.9 180.4 -42.2 L 180.4 -42.2 L 180.4 -42.2 Q 175.6 -38.7 168 -38.7 L 168 -38.7 L 168 -38.7 Q 163.8 -38.7 160.6 -40.8 L 160.6 -40.8 L 160.6 -40.8 Q 157.4 -43 157.4 -45.4 L 157.4 -45.4 L 157.4 -45.4 Q 157.4 -47.9 159.2 -49.4 L 159.2 -49.4 L 159.2 -49.4 Q 161.1 -50.9 163.7 -50.9 L 163.7 -50.9 L 163.7 -50.9 Q 166.4 -50.9 168.1 -49.9 L 168.1 -49.9 L 168.1 -49.9 Q 167.3 -47.8 167.3 -46.3 L 167.3 -46.3 L 167.3 -46.3 Q 167.3 -42.1 170.8 -42.1 L 170.8 -42.1 L 170.8 -42.1 Q 172.4 -42.1 173.4 -43.1 L 173.4 -43.1 L 173.4 -43.1 Q 174.4 -44 174.4 -45.7 L 174.4 -45.7 L 174.4 -45.7 Q 174.4 -49 168.9 -52.4 L 168.9 -52.4 L 168.9 -52.4 Q 164.4 -55.4 163.4 -56.5 L 163.4 -56.5 L 163.4 -56.5 Q 161.7 -58.6 161.7 -61.1 L 161.7 -61.1 L 161.7 -61.1 Q 161.7 -63.7 162.9 -66.1 L 162.9 -66.1 L 162.9 -66.1 Q 164.1 -68.6 166.4 -70.3 L 166.4 -70.3 L 166.4 -70.3 Q 171 -73.9 179.2 -73.9 L 179.2 -73.9 L 179.2 -73.9 Q 183.3 -73.9 185.8 -72.2 L 185.8 -72.2 L 185.8 -72.2 Q 188.3 -70.5 188.3 -67.7 L 188.3 -67.7 L 188.3 -67.7 Q 188.3 -64.9 186.6 -63.3 L 186.6 -63.3 L 186.6 -63.3 Q 184.9 -61.7 181.8 -61.7 L 181.8 -61.7 L 181.8 -61.7 Q 179.7 -61.7 178.7 -62.4 Z M 229.7 -60.6 L 242.7 -61.7 L 242.7 -61.7 Q 238 -51.6 238 -39.9 L 238 -39.9 L 238 -39.9 Q 236.3 -38.7 233.8 -38.7 L 233.8 -38.7 L 233.8 -38.7 Q 231.3 -38.7 229.7 -39.8 L 229.7 -39.8 L 229.7 -39.8 Q 228.1 -41 227.7 -42.2 L 227.7 -42.2 L 227.7 -42.2 Q 226.1 -40.6 223.6 -39.6 L 223.6 -39.6 L 223.6 -39.6 Q 221 -38.7 218.2 -38.7 L 218.2 -38.7 L 218.2 -38.7 Q 215.5 -38.7 213.1 -39.6 L 213.1 -39.6 L 213.1 -39.6 Q 210.7 -40.5 208.8 -42.4 L 208.8 -42.4 L 208.8 -42.4 Q 204.7 -46.8 204.7 -55 L 204.7 -55 L 204.7 -55 Q 204.7 -67.8 211.6 -75.5 L 211.6 -75.5 L 211.6 -75.5 Q 218.6 -83.5 231.1 -83.5 L 231.1 -83.5 L 231.1 -83.5 Q 239.7 -83.5 242.8 -79 L 242.8 -79 L 242.8 -79 Q 243.7 -77.6 243.7 -75.9 L 243.7 -75.9 L 243.7 -75.9 Q 243.7 -74.2 243 -72.7 L 243 -72.7 L 243 -72.7 Q 242.3 -71.3 241.1 -70.2 L 241.1 -70.2 L 241.1 -70.2 Q 238.4 -67.6 235 -67.6 L 235 -67.6 L 235 -67.6 Q 233.6 -67.6 232.4 -68 L 232.4 -68 L 232.4 -68 Q 232.6 -70 232.6 -72.2 L 232.6 -72.2 L 232.6 -72.2 Q 232.6 -74.4 232.4 -75.5 L 232.4 -75.5 L 232.4 -75.5 Q 232.3 -76.5 231.9 -77.3 L 231.9 -77.3 L 231.9 -77.3 Q 231.1 -79 229.2 -79 L 229.2 -79 L 229.2 -79 Q 227.4 -79 225.4 -77.1 L 225.4 -77.1 L 225.4 -77.1 Q 223.4 -75.1 221.8 -71.9 L 221.8 -71.9 L 221.8 -71.9 Q 218.3 -64.8 218.3 -56.1 L 218.3 -56.1 L 218.3 -56.1 Q 218.3 -52.2 219.8 -49.4 L 219.8 -49.4 L 219.8 -49.4 Q 221.5 -46.3 224.4 -46.3 L 224.4 -46.3 L 224.4 -46.3 Q 225.4 -46.3 226.4 -46.8 L 226.4 -46.8 L 226.4 -46.8 Q 227.3 -47.3 227.7 -47.7 L 227.7 -47.7 L 229.7 -60.6 Z M 248.6 -41.9 L 248.6 -41.9 L 248.6 -41.9 Q 247.1 -43.5 246.4 -46.2 L 246.4 -46.2 L 246.4 -46.2 Q 245.7 -48.8 245.7 -53.1 L 245.7 -53.1 L 245.7 -53.1 Q 245.7 -57.4 247.2 -61.3 L 247.2 -61.3 L 247.2 -61.3 Q 248.7 -65.2 251.4 -68 L 251.4 -68 L 251.4 -68 Q 256.9 -73.9 266 -73.9 L 266 -73.9 L 266 -73.9 Q 269.2 -73.9 271.6 -72.8 L 271.6 -72.8 L 282.5 -73.9 L 277.8 -48.9 L 277.8 -48.9 Q 277.6 -48.1 277.6 -46.7 L 277.6 -46.7 L 277.6 -46.7 Q 277.6 -45.3 278.5 -44.4 L 278.5 -44.4 L 278.5 -44.4 Q 279.3 -43.5 280.6 -43.4 L 280.6 -43.4 L 280.6 -43.4 Q 280 -41.2 277.6 -39.9 L 277.6 -39.9 L 277.6 -39.9 Q 275.3 -38.7 272.7 -38.7 L 272.7 -38.7 L 272.7 -38.7 Q 270 -38.7 268.3 -39.7 L 268.3 -39.7 L 268.3 -39.7 Q 266.5 -40.6 266 -42.3 L 266 -42.3 L 266 -42.3 Q 265 -40.7 262.8 -39.7 L 262.8 -39.7 L 262.8 -39.7 Q 260.6 -38.7 257.7 -38.7 L 257.7 -38.7 L 257.7 -38.7 Q 254.8 -38.7 252.4 -39.4 L 252.4 -39.4 L 252.4 -39.4 Q 250.1 -40.2 248.6 -41.9 Z M 262.1 -67.8 L 262.1 -67.8 L 262.1 -67.8 Q 261.3 -66.7 260.7 -64.7 L 260.7 -64.7 L 260.7 -64.7 Q 260.1 -62.8 259 -57.6 L 259 -57.6 L 259 -57.6 Q 258 -52.4 258 -48.6 L 258 -48.6 L 258 -48.6 Q 258 -44.9 258.5 -43.8 L 258.5 -43.8 L 258.5 -43.8 Q 259.1 -42.8 260.1 -42.8 L 260.1 -42.8 L 260.1 -42.8 Q 262.2 -42.8 263.7 -44.7 L 263.7 -44.7 L 263.7 -44.7 Q 265.2 -46.7 265.8 -50.1 L 265.8 -50.1 L 269.2 -68.9 L 269.2 -68.9 Q 267.8 -70 266.2 -70 L 266.2 -70 L 266.2 -70 Q 264.7 -70 263.7 -69.5 L 263.7 -69.5 L 263.7 -69.5 Q 262.8 -69 262.1 -67.8 Z M 301.3 -43.5 L 301.3 -43.5 L 301.3 -43.5 Q 299.3 -38.7 293 -38.7 L 293 -38.7 L 293 -38.7 Q 289.8 -38.7 287.7 -40.9 L 287.7 -40.9 L 287.7 -40.9 Q 286 -42.8 286 -44.9 L 286 -44.9 L 286 -44.9 Q 286 -49.7 288.3 -60.2 L 288.3 -60.2 L 293 -84.7 L 306 -86 L 299.7 -53.6 L 299.7 -53.6 Q 298.7 -48.9 298.7 -47.2 L 298.7 -47.2 L 298.7 -47.2 Q 298.7 -43.6 301.3 -43.5 Z M 322 -43.5 L 322 -43.5 L 322 -43.5 Q 320 -38.7 313.7 -38.7 L 313.7 -38.7 L 313.7 -38.7 Q 310.5 -38.7 308.4 -40.9 L 308.4 -40.9 L 308.4 -40.9 Q 306.8 -42.8 306.8 -44.9 L 306.8 -44.9 L 306.8 -44.9 Q 306.8 -49.7 309 -60.2 L 309 -60.2 L 313.7 -84.7 L 326.7 -86 L 320.5 -53.6 L 320.5 -53.6 Q 319.4 -48.9 319.4 -47.2 L 319.4 -47.2 L 319.4 -47.2 Q 319.4 -43.6 322 -43.5 Z M 353.4 -50.8 L 353.4 -50.8 L 353.4 -50.8 Q 355 -49.7 355 -47.3 L 355 -47.3 L 355 -47.3 Q 355 -44.9 353.8 -43.3 L 353.8 -43.3 L 353.8 -43.3 Q 352.5 -41.8 350.6 -40.8 L 350.6 -40.8 L 350.6 -40.8 Q 346.5 -38.7 342 -38.7 L 342 -38.7 L 342 -38.7 Q 337.6 -38.7 335 -39.6 L 335 -39.6 L 335 -39.6 Q 332.4 -40.6 330.7 -42.4 L 330.7 -42.4 L 330.7 -42.4 Q 327.3 -45.8 327.3 -52 L 327.3 -52 L 327.3 -52 Q 327.3 -61.6 332.6 -67.5 L 332.6 -67.5 L 332.6 -67.5 Q 338.2 -73.9 348 -73.9 L 348 -73.9 L 348 -73.9 Q 354.1 -73.9 357.1 -71.3 L 357.1 -71.3 L 357.1 -71.3 Q 359.3 -69.4 359.3 -66.2 L 359.3 -66.2 L 359.3 -66.2 Q 359.3 -55 339.9 -55 L 339.9 -55 L 339.9 -55 Q 339.6 -53.3 339.6 -51.9 L 339.6 -51.9 L 339.6 -51.9 Q 339.6 -49 340.9 -47.8 L 340.9 -47.8 L 340.9 -47.8 Q 342.2 -46.7 344.7 -46.7 L 344.7 -46.7 L 344.7 -46.7 Q 347.1 -46.7 349.7 -47.8 L 349.7 -47.8 L 349.7 -47.8 Q 352.3 -49 353.4 -50.8 Z M 340.3 -57.7 L 340.3 -57.7 L 340.3 -57.7 Q 344.9 -57.7 347.5 -60.6 L 347.5 -60.6 L 347.5 -60.6 Q 350.1 -63.2 350.1 -67.5 L 350.1 -67.5 L 350.1 -67.5 Q 350.1 -69 349.6 -69.8 L 349.6 -69.8 L 349.6 -69.8 Q 349 -70.6 347.9 -70.6 L 347.9 -70.6 L 347.9 -70.6 Q 346.8 -70.6 345.9 -70.2 L 345.9 -70.2 L 345.9 -70.2 Q 345 -69.8 344 -68.4 L 344 -68.4 L 344 -68.4 Q 341.7 -65.2 340.3 -57.7 Z M 381.5 -57.9 L 381.5 -57.9 L 381.5 -57.9 Q 383.8 -62 383.8 -66.2 L 383.8 -66.2 L 383.8 -66.2 Q 383.8 -68.9 381.9 -68.9 L 381.9 -68.9 L 381.9 -68.9 Q 380.3 -68.9 378.7 -66.3 L 378.7 -66.3 L 378.7 -66.3 Q 377.1 -63.7 376.5 -60.3 L 376.5 -60.3 L 373.2 -39.9 L 360 -38.7 L 366.5 -72.6 L 377.1 -73.9 L 375.9 -67.4 L 375.9 -67.4 Q 379 -73.9 386.1 -73.9 L 386.1 -73.9 L 386.1 -73.9 Q 389.8 -73.9 391.8 -71.9 L 391.8 -71.9 L 391.8 -71.9 Q 393.8 -70 393.8 -66.1 L 393.8 -66.1 L 393.8 -66.1 Q 393.8 -62.2 391.2 -59.7 L 391.2 -59.7 L 391.2 -59.7 Q 388.6 -57.2 384.2 -57.2 L 384.2 -57.2 L 384.2 -57.2 Q 382.3 -57.2 381.5 -57.9 Z M 415.2 -47.2 L 415.2 -47.2 L 415.2 -47.2 Q 411.9 -43.7 405.8 -43.7 L 405.8 -43.7 L 405.8 -43.7 Q 398.2 -43.7 396.6 -49.3 L 396.6 -49.3 L 396.6 -49.3 Q 396.1 -51 396.1 -52.8 L 396.1 -52.8 L 396.1 -52.8 Q 396.1 -54.7 396.4 -56.6 L 396.4 -56.6 L 399.5 -72.6 L 412.4 -73.9 L 408.9 -55.2 L 408.9 -55.2 Q 408.8 -54.4 408.6 -53.5 L 408.6 -53.5 L 408.6 -53.5 Q 408.4 -52.6 408.4 -51.7 L 408.4 -51.7 L 408.4 -51.7 Q 408.4 -50.8 408.7 -50.2 L 408.7 -50.2 L 408.7 -50.2 Q 409.1 -49.5 409.5 -49.2 L 409.5 -49.2 L 409.5 -49.2 Q 410.3 -48.6 411.6 -48.6 L 411.6 -48.6 L 411.6 -48.6 Q 413 -48.6 414.2 -50.3 L 414.2 -50.3 L 414.2 -50.3 Q 415.4 -52 416 -54.9 L 416 -54.9 L 419.5 -72.6 L 432.1 -73.9 L 427.3 -48.7 L 427.3 -48.7 Q 424.9 -36.4 420.1 -31.6 L 420.1 -31.6 L 420.1 -31.6 Q 417.6 -29.1 414.3 -28.1 L 414.3 -28.1 L 414.3 -28.1 Q 411.1 -27.1 406.9 -27.1 L 406.9 -27.1 L 406.9 -27.1 Q 400.2 -27.1 396.4 -29.2 L 396.4 -29.2 L 396.4 -29.2 Q 392.5 -31.3 392.5 -34.8 L 392.5 -34.8 L 392.5 -34.8 Q 392.5 -37.4 394.5 -39 L 394.5 -39 L 394.5 -39 Q 396.5 -40.5 399.6 -40.5 L 399.6 -40.5 L 399.6 -40.5 Q 402.3 -40.5 404.3 -39.3 L 404.3 -39.3 L 404.3 -39.3 Q 405.5 -38.6 406.1 -37.7 L 406.1 -37.7 L 406.1 -37.7 Q 404.6 -36.4 404.6 -34.3 L 404.6 -34.3 L 404.6 -34.3 Q 404.6 -31.5 407.2 -31.5 L 407.2 -31.5 L 407.2 -31.5 Q 411.4 -31.5 413.9 -41.2 L 413.9 -41.2 L 413.9 -41.2 Q 414.6 -44.1 415.2 -47.2 Z" fill="#ffd5af"></path></g></g><style>text {
  font-size: 64px;
  font-family: Arial Black;
  dominant-baseline: central;
  text-anchor: middle;
}</style></svg>